<svg width="456" height="456" viewBox="0 0 456 456" fill="none" xmlns="http://www.w3.org/2000/svg">
<path d="M227.8 455.6C353.61 455.6 455.6 353.61 455.6 227.8C455.6 101.99 353.61 0 227.8 0C101.99 0 0 101.99 0 227.8C0 353.61 101.99 455.6 227.8 455.6Z" fill="url(#paint0_linear_2_4)"/>
<path d="M392.26 259.99C388.27 256.33 382.9 256.53 378.91 259.99C376.9 261.73 374.85 263.41 372.76 265.05C361.93 273.27 350.1 280.1 337.62 285.49C324.1 291.06 309.92 294.92 295.44 296.98C281.32 298.75 267.03 298.8 252.91 297.02C235.37 294.46 218.56 288.8 202.09 282.37C215.47 276.38 228.48 269.59 241.13 262.14C248.28 257.93 255.32 253.51 262.25 248.94C274.15 250.8 286.29 251.33 298.27 250.43C307.12 249.76 315.96 248.44 324.6 246.43C332.1 244.69 339.44 242.48 346.42 239.19C355.36 234.99 364.19 228.04 368.29 218.8C370.23 214.43 371.52 209.86 371.33 205.03C371.16 200.46 370 196.13 367.83 192.11C363.9 184.82 356.2 179.33 348.06 177.85C337.49 175.92 326.97 178.7 317.91 184.33C313.53 187.05 309.6 190.45 305.58 193.66C302.23 196.34 298.87 199.01 295.5 201.66C294.07 202.78 292.63 203.9 291.19 205.02C280.41 213.33 269.42 221.36 258.16 228.99C247.41 226.65 236.99 223.14 226.78 218.92C218.12 215.23 209.64 211.13 201.27 206.81C213.26 202.15 224.96 196.73 236.4 190.89C252.85 182.5 268.83 173.19 284.59 163.57C288.71 161.06 292.8 158.52 296.9 155.97C301.09 153.36 303.11 147.42 300.29 143.05C297.58 138.85 291.86 136.87 287.37 139.66C265.36 153.38 243.05 166.76 219.72 178.15C214.01 180.94 208.24 183.59 202.4 186.08C194.72 189.28 186.9 192.19 178.95 194.68C178.77 194.58 178.59 194.48 178.42 194.38C170.36 189.84 162.36 185.21 154.33 180.62C146.67 176.24 139.04 171.7 131.18 167.69C125.87 164.98 120.2 162.63 114.33 161.44C108.63 160.28 103.24 160.07 97.51 160.94C89.43 162.16 81.52 167.05 77.52 174.31C73.17 182.19 73.59 191.37 77.66 199.26C82.31 208.28 91.5 213.93 100.7 217.37C106.68 219.6 113.01 220.65 119.34 221.31C126.5 222.06 133.76 221.93 140.94 221.38C153.04 220.45 164.99 218.25 176.68 215.05C184.6 219.42 192.59 223.67 200.71 227.65C212.35 233.35 224.33 238.75 236.7 242.8C229.12 247.39 221.42 251.78 213.58 255.9C205.12 260.34 196.48 264.46 187.69 268.22C184.24 269.65 180.77 271.04 177.27 272.34C166.21 267.8 155.13 263.28 143.89 259.2C133.47 255.42 122.91 251.99 112.2 249.12C107.4 247.83 102.68 246.71 97.72 246.24C94 245.89 90.4 246.21 86.71 246.77C75.13 248.54 63.94 257.17 61.29 268.93C59.87 275.25 60.71 281.48 63.61 287.25C66.37 292.74 71.5 297.26 76.91 300.03C84.44 303.89 92.78 305.46 101.18 305.79C111.43 306.19 121.74 305.13 131.87 303.72C147.24 301.58 162.32 297.65 176.96 292.5C188.74 297.36 200.54 302.19 212.59 306.34C231.38 312.81 250.83 316.86 270.75 317.24C291.16 317.63 311.86 314.46 331.23 308C351.37 301.29 370 291.21 386.64 278.05C388.56 276.53 390.44 274.97 392.29 273.37C396.04 270.12 395.86 263.3 392.29 260.02L392.26 259.99ZM318.53 207.34C320.26 205.96 321.98 204.57 323.71 203.2C326.42 201.19 329.29 199.41 332.35 197.98C334.46 197.16 336.64 196.53 338.87 196.13C340.33 196.01 341.79 196 343.26 196.13C344.36 196.35 345.44 196.64 346.5 197.02C347.31 197.43 348.09 197.88 348.84 198.39C349.45 198.93 350.02 199.5 350.56 200.1C351 200.75 351.39 201.43 351.75 202.13C352.02 202.9 352.23 203.69 352.4 204.5C352.46 205.37 352.46 206.24 352.4 207.1C352.19 208.14 351.91 209.16 351.56 210.16C350.96 211.4 350.25 212.59 349.46 213.72C348.07 215.38 346.51 216.89 344.83 218.27C342.08 220.24 339.11 221.89 336.03 223.29C326.59 227.12 316.31 229.3 306.23 230.74C299.71 231.56 293.15 231.98 286.59 231.97C297.43 224.02 308.04 215.75 318.54 207.35L318.53 207.34ZM117.81 202.22C113.47 201.54 109.2 200.49 105.1 198.91C102.76 197.85 100.52 196.59 98.43 195.1C97.31 194.15 96.27 193.12 95.31 192C94.76 191.19 94.25 190.34 93.81 189.47C93.57 188.78 93.38 188.09 93.23 187.38C93.2 186.81 93.2 186.24 93.23 185.68C93.34 185.17 93.48 184.67 93.64 184.18C93.88 183.72 94.14 183.27 94.43 182.84C94.84 182.38 95.28 181.95 95.74 181.54C96.41 181.1 97.1 180.7 97.82 180.34C99 179.92 100.21 179.59 101.44 179.35C103.61 179.15 105.78 179.19 107.95 179.42C111.42 180.02 114.79 181.04 118.06 182.33C123.99 184.95 129.6 188.33 135.24 191.51C140.89 194.7 146.52 197.93 152.14 201.16C150.99 201.35 149.83 201.53 148.67 201.69C138.48 202.99 128.04 203.48 117.82 202.23L117.81 202.22ZM127.19 285.42C121.79 286.11 116.37 286.59 110.93 286.8C106.02 286.99 101.1 287.04 96.21 286.49C93.27 286.01 90.37 285.3 87.59 284.25C86.02 283.52 84.51 282.67 83.09 281.67C82.36 281.03 81.67 280.35 81.03 279.62C80.63 279.02 80.26 278.39 79.93 277.75C79.73 277.16 79.57 276.55 79.44 275.94C79.41 275.34 79.41 274.73 79.44 274.13C79.59 273.45 79.77 272.79 79.99 272.13C80.34 271.44 80.74 270.78 81.17 270.13C81.78 269.44 82.43 268.78 83.13 268.18C84.1 267.51 85.13 266.91 86.19 266.39C87.72 265.83 89.28 265.4 90.88 265.11C93.33 264.88 95.78 264.92 98.23 265.18C102.35 265.88 106.39 267.08 110.4 268.2C115.86 269.72 121.29 271.39 126.68 273.17C134.16 275.64 141.56 278.34 148.92 281.17C145.99 281.9 143.04 282.59 140.08 283.2C135.81 284.08 131.52 284.82 127.21 285.43L127.19 285.42Z" fill="white"/>
<defs>
<linearGradient id="paint0_linear_2_4" x1="0" y1="227.8" x2="455.6" y2="227.8" gradientUnits="userSpaceOnUse">
<stop stop-color="#4C61DF"/>
<stop offset="1" stop-color="#2B2A47"/>
</linearGradient>
</defs>
</svg>
